<?xml version="1.0" standalone="no"?><!DOCTYPE svg PUBLIC "-//W3C//DTD SVG 1.1//EN" "http://www.w3.org/Graphics/SVG/1.1/DTD/svg11.dtd"><svg t="1757498375279" class="icon" viewBox="0 0 1024 1024" version="1.1" xmlns="http://www.w3.org/2000/svg" p-id="4543" xmlns:xlink="http://www.w3.org/1999/xlink" width="200" height="200"><path d="M149.333333 138.666667c-11.946667 0-21.333333 9.386667-21.333333 21.333333s9.386667 21.333333 21.333333 21.333333 21.333333-9.386667 21.333334-21.333333-9.386667-21.333333-21.333334-21.333333z m85.333334 0c-11.946667 0-21.333333 9.386667-21.333334 21.333333s9.386667 21.333333 21.333334 21.333333 21.333333-9.386667 21.333333-21.333333-9.386667-21.333333-21.333333-21.333333z m85.333333 0c-11.946667 0-21.333333 9.386667-21.333333 21.333333s9.386667 21.333333 21.333333 21.333333 21.333333-9.386667 21.333333-21.333333-9.386667-21.333333-21.333333-21.333333z m244.48 398.933333a63.829333 63.829333 0 0 0-51.626667-101.546667 63.914667 63.914667 0 0 0-52.48 100.693334C415.146667 563.626667 384 623.786667 384 693.333333c0 93.44 56.32 170.666667 128 170.666667s128-77.226667 128-170.666667c0-69.12-30.72-128.853333-75.52-155.733333zM341.333333 373.333333c-11.946667 0-21.333333 9.386667-21.333333 21.333334v110.08c0 17.066667 6.826667 33.28 18.773333 45.226666l30.293334 29.866667c4.266667 4.266667 9.813333 6.4 14.933333 6.4 5.546667 0 11.093333-2.133333 14.933333-6.4 8.106667-8.533333 8.106667-21.76 0-30.293333l-30.293333-29.866667a21.76 21.76 0 0 1-6.4-14.933333V394.666667a20.48 20.48 0 0 0-20.906667-21.333334z m14.933334 347.733334c-8.533333-8.533333-21.76-8.533333-30.293334 0l-72.533333 72.533333c-11.946667 11.946667-18.773333 28.586667-18.773333 45.226667v67.84c0 11.946667 9.386667 21.333333 21.333333 21.333333s21.333333-9.386667 21.333333-21.333333v-67.84c0-5.546667 2.133333-11.093333 6.4-14.933334l72.96-72.96c8.106667-8.106667 8.106667-21.76-0.426666-29.866666zM256 501.333333c-11.946667 0-21.333333 9.386667-21.333333 21.333334v58.88c0 24.32 13.653333 46.506667 35.413333 57.173333l61.866667 30.72a21.546667 21.546667 0 0 0 19.2-38.4l-61.866667-30.72a21.333333 21.333333 0 0 1-11.946667-19.2v-58.88c0-11.52-9.386667-20.906667-21.333333-20.906667z m113.066667 305.066667l-30.293334 29.866667c-11.946667 11.946667-18.773333 28.586667-18.773333 45.226666v67.84c0 11.946667 9.386667 21.333333 21.333333 21.333334s21.333333-9.386667 21.333334-21.333334v-67.84c0-5.546667 2.133333-11.093333 6.4-14.933333l30.293333-30.293333c8.533333-8.533333 8.533333-21.76 0-30.293334s-22.186667-8.106667-30.293333 0.426667zM768 501.333333c-11.946667 0-21.333333 9.386667-21.333333 21.333334v58.88c0 8.106667-4.693333 15.36-11.946667 19.2l-61.866667 30.72c-10.666667 5.12-14.933333 17.92-9.386666 28.586666 3.84 7.253333 11.093333 11.946667 19.2 11.946667 3.413333 0 6.4-0.853333 9.386666-2.133333l61.866667-30.72c21.76-10.666667 35.413333-32.853333 35.413333-57.173334v-58.88c0-12.373333-9.386667-21.76-21.333333-21.76z m-70.4 219.733334c-8.533333-8.533333-21.76-8.533333-30.293333 0s-8.533333 21.76 0 30.293333l72.96 72.96c3.84 3.84 6.4 9.386667 6.4 14.933333v67.84c0 11.946667 9.386667 21.333333 21.333333 21.333334s21.333333-9.386667 21.333333-21.333334v-67.84c0-16.64-6.826667-33.28-18.773333-45.226666l-72.96-72.96z m-42.666667-140.8l30.293334-29.866667c11.946667-11.946667 18.773333-28.586667 18.773333-45.226667V394.666667c0-11.946667-9.386667-21.333333-21.333333-21.333334s-21.333333 9.386667-21.333334 21.333334v110.08c0 5.546667-2.133333 11.093333-6.4 14.933333l-30.293333 29.866667c-8.533333 8.533333-8.533333 21.76 0 30.293333 4.266667 4.266667 9.813333 6.4 14.933333 6.4s11.093333-1.706667 15.36-5.973333z m0 226.133333c-8.533333-8.533333-21.76-8.533333-30.293333 0s-8.533333 21.76 0 30.293333l30.293333 30.293334c3.84 3.84 6.4 9.386667 6.4 14.933333v67.84c0 11.946667 9.386667 21.333333 21.333334 21.333333s21.333333-9.386667 21.333333-21.333333v-67.84c0-16.64-6.826667-33.28-18.773333-45.226667l-30.293334-30.293333z m248.32-731.733333H120.746667C77.653333 74.666667 42.666667 109.226667 42.666667 152.32v698.026667c0 42.666667 34.986667 77.653333 78.08 77.653333H170.666667v-42.666667H120.746667c-19.626667 0-35.413333-15.786667-35.413334-34.986666V256h853.333334v594.346667c0 19.2-15.786667 34.986667-35.413334 34.986666H853.333333v42.666667h49.92c43.093333 0 78.08-34.56 78.08-77.653333V152.32c0-43.093333-34.986667-77.653333-78.08-77.653333zM938.666667 213.333333H85.333333V152.32c0-19.2 15.786667-34.986667 35.413334-34.986667h782.08c19.626667 0 35.413333 15.786667 35.413333 34.986667V213.333333z" fill="#5E5E5E" p-id="4544"></path></svg>